<svg xmlns="http://www.w3.org/2000/svg" width="15" height="16" viewBox="0 0 15 16" fill="none">
<g clip-path="url(#clip0_1_782)">
<path d="M8.87423 8.01229L14.7149 2.17141C15.095 1.79148 15.095 1.1772 14.7149 0.797273C14.335 0.417348 13.7207 0.417348 13.3408 0.797273L7.49992 6.63815L1.65921 0.797273C1.27911 0.417348 0.665002 0.417348 0.285077 0.797273C-0.0950257 1.1772 -0.0950257 1.79148 0.285077 2.17141L6.12578 8.01229L0.285077 13.8532C-0.0950257 14.2331 -0.0950257 14.8474 0.285077 15.2273C0.474417 15.4168 0.72337 15.512 0.972145 15.512C1.22092 15.512 1.4697 15.4168 1.65921 15.2273L7.49992 9.38643L13.3408 15.2273C13.5303 15.4168 13.7791 15.512 14.0279 15.512C14.2766 15.512 14.5254 15.4168 14.7149 15.2273C15.095 14.8474 15.095 14.2331 14.7149 13.8532L8.87423 8.01229Z" fill="black"/>
</g>
<defs>
<clipPath id="clip0_1_782">
<rect width="15" height="15" fill="white" transform="translate(0 0.5)"/>
</clipPath>
</defs>
</svg>