<svg xmlns="http://www.w3.org/2000/svg" width="37" height="37" viewBox="0 0 37 37" fill="none">
<path d="M36.0622 18C36.0622 27.662 28.1797 35.5 18.4494 35.5C8.71918 35.5 0.836609 27.662 0.836609 18C0.836609 8.33796 8.71918 0.5 18.4494 0.5C28.1797 0.5 36.0622 8.33796 36.0622 18Z" fill="white" stroke="#1B1F23"/>
<g clip-path="url(#clip0_383_25)">
<path fill-rule="evenodd" clip-rule="evenodd" d="M-2.81525 48.9901L-4.30539 48.9849L-4.33045 41.657L-15.8318 53.0867L-16.8991 52.026L-5.39918 40.5978L-12.7716 40.5714L-12.7768 39.0906L-4.33899 39.1199L-4.33999 39.1125L-2.84985 39.1177L-2.81525 48.9901Z" fill="white"/>
<path fill-rule="evenodd" clip-rule="evenodd" d="M24.9348 21.4129L23.4447 21.4078L23.4196 14.0799L11.9183 25.5095L10.851 24.4489L22.3509 13.0206L14.9785 12.9943L14.9733 11.5134L23.4111 11.5428L23.4101 11.5354L24.9002 11.5405L24.9348 21.4129Z" fill="#1B1F23"/>
</g>
<defs>
<clipPath id="clip0_383_25">
<rect width="19.0596" height="33.1036" fill="white" transform="matrix(0.709312 -0.704894 -0.709312 -0.704894 23.4808 37)"/>
</clipPath>
</defs>
</svg>