{% comment %}
<svg class="icon icon-facebook" viewBox="0 0 20 20"><path fill="currentColor" d="M18 10.049C18 5.603 14.419 2 10 2s-8 3.603-8 8.049C2 14.067 4.925 17.396 8.75 18v-5.624H6.719v-2.328h2.03V8.275c0-2.017 1.195-3.132 3.023-3.132.874 0 1.79.158 1.79.158v1.98h-1.009c-.994 0-1.303.621-1.303 1.258v1.51h2.219l-.355 2.326H11.25V18c3.825-.604 6.75-3.933 6.75-7.951"/></svg>
{% endcomment %}

<svg xmlns="http://www.w3.org/2000/svg" width="10" height="19" viewBox="0 0 10 19" fill="none">
<path fill-rule="evenodd" clip-rule="evenodd" d="M9.95525 3.0544L8.22335 3.05555C6.8652 3.05555 6.60185 3.7007 6.60185 4.64715V6.73555H9.8414L9.41935 10.0073H6.60185V18.4H3.2243V10.0073H0.399902V6.73555H3.2243V4.324C3.2243 1.52375 4.93435 0 7.431 0C8.627 0 9.6551 0.08855 9.95525 0.1288V3.0544Z" fill="black"></path>
</svg>