
{% comment %}
<svg class="icon icon-youtube" viewBox="0 0 20 20"><path fill="currentColor" d="M18.16 5.87c.34 1.309.34 4.08.34 4.08s0 2.771-.34 4.08a2.13 2.13 0 0 1-1.53 1.53c-1.309.34-6.63.34-6.63.34s-5.321 0-6.63-.34a2.13 2.13 0 0 1-1.53-1.53c-.34-1.309-.34-4.08-.34-4.08s0-2.771.34-4.08a2.17 2.17 0 0 1 1.53-1.53C4.679 4 10 4 10 4s5.321 0 6.63.34a2.17 2.17 0 0 1 1.53 1.53M8.3 12.5l4.42-2.55L8.3 7.4z"/></svg>
{% endcomment %}

<svg xmlns="http://www.w3.org/2000/svg" width="22" height="16" viewBox="0 0 22 16" fill="none">
<rect x="0.955078" width="21.0286" height="15.7051" rx="3" fill="black"/>
<path fill-rule="evenodd" clip-rule="evenodd" d="M14.3387 8.11108C14.4829 8.18563 14.4829 8.39184 14.3387 8.46639L9.13292 11.158C8.9998 11.2269 8.84106 11.1302 8.84106 10.9804V5.5971C8.84106 5.44723 8.9998 5.35061 9.13292 5.41944L14.3387 8.11108Z" fill="white"/>
</svg>