{% comment %}
<svg class="icon icon-twitter" viewBox="0 0 20 20"><path fill="currentColor" fill-rule="evenodd" d="M7.273 2.8 10.8 7.822 15.218 2.8h1.768l-5.4 6.139 5.799 8.254h-4.658l-3.73-5.31-4.671 5.31H2.558l5.654-6.427L2.615 2.8zm6.242 13.125L5.07 4.109h1.405l8.446 11.816z" clip-rule="evenodd"/></svg>
{% endcomment %}

<svg xmlns="http://www.w3.org/2000/svg" width="19" height="15" viewBox="0 0 19 15" fill="none">
<path fill-rule="evenodd" clip-rule="evenodd" d="M16.5163 3.72485C16.5232 3.887 16.5278 4.04915 16.5278 4.2136C16.5278 9.20115 12.7305 14.9534 5.7868 14.9534C3.6547 14.9534 1.67095 14.329 0 13.2583C0.29555 13.2928 0.5957 13.3101 0.90045 13.3101C2.66915 13.3101 4.2964 12.7075 5.589 11.6943C3.93645 11.6644 2.54265 10.5731 2.06195 9.0735C2.2931 9.1172 2.52885 9.1402 2.77265 9.1402C3.1165 9.1402 3.45 9.0942 3.7674 9.00795C2.0401 8.6618 0.73945 7.13575 0.73945 5.30725C0.73945 5.29115 0.73945 5.27505 0.73945 5.25895C1.24775 5.54185 1.8308 5.71205 2.4495 5.7316C1.43635 5.05425 0.76935 3.8985 0.76935 2.5898C0.76935 1.8975 0.95565 1.2489 1.2811 0.69115C3.14295 2.97505 5.9248 4.4781 9.062 4.63565C8.9976 4.35965 8.96425 4.071 8.96425 3.77545C8.96425 1.6905 10.6547 0 12.7385 0C13.8253 0 14.8062 0.45885 15.4939 1.19255C16.3541 1.0235 17.1626 0.70955 17.8917 0.27715C17.6099 1.15805 17.0108 1.8975 16.2322 2.36555C16.9958 2.27355 17.7226 2.07115 18.4 1.771C17.894 2.5277 17.2534 3.1924 16.5163 3.72485Z" fill="black"/>
</svg>