{% comment %}
<svg class="icon icon-instagram" viewBox="0 0 20 20"><path fill="currentColor" fill-rule="evenodd" d="M13.23 3.492c-.84-.037-1.096-.046-3.23-.046-2.144 0-2.39.01-3.238.055-.776.027-1.195.164-1.487.273a2.4 2.4 0 0 0-.912.593 2.5 2.5 0 0 0-.602.922c-.11.282-.238.702-.274 1.486-.046.84-.046 1.095-.046 3.23s.01 2.39.046 3.229c.004.51.097 1.016.274 1.495.145.365.319.639.602.913.282.282.538.456.92.602.474.176.974.268 1.479.273.848.046 1.103.046 3.238.046s2.39-.01 3.23-.046c.784-.036 1.203-.164 1.486-.273.374-.146.648-.329.921-.602.283-.283.447-.548.602-.922.177-.476.27-.979.274-1.486.037-.84.046-1.095.046-3.23s-.01-2.39-.055-3.229c-.027-.784-.164-1.204-.274-1.495a2.4 2.4 0 0 0-.593-.913 2.6 2.6 0 0 0-.92-.602c-.284-.11-.703-.237-1.488-.273ZM6.697 2.05c.857-.036 1.131-.045 3.302-.045a63 63 0 0 1 3.302.045c.664.014 1.321.14 1.943.374a4 4 0 0 1 1.414.922c.41.397.728.88.93 1.414.23.622.354 1.279.365 1.942C18 7.56 18 7.824 18 10.005c0 2.17-.01 2.444-.046 3.292-.036.858-.173 1.442-.374 1.943-.2.53-.474.976-.92 1.423a3.9 3.9 0 0 1-1.415.922c-.51.191-1.095.337-1.943.374-.857.036-1.122.045-3.302.045-2.171 0-2.445-.009-3.302-.055-.849-.027-1.432-.164-1.943-.364a4.15 4.15 0 0 1-1.414-.922 4.1 4.1 0 0 1-.93-1.423c-.183-.51-.329-1.085-.365-1.943C2.009 12.45 2 12.167 2 10.004c0-2.161 0-2.435.055-3.302.027-.848.164-1.432.365-1.942a4.4 4.4 0 0 1 .92-1.414 4.2 4.2 0 0 1 1.415-.93c.51-.183 1.094-.33 1.943-.366Zm.427 4.806a4.105 4.105 0 1 1 5.805 5.805 4.105 4.105 0 0 1-5.805-5.805m1.882 5.371a2.668 2.668 0 1 0 2.042-4.93 2.668 2.668 0 0 0-2.042 4.93m5.922-5.942a.958.958 0 1 1-1.355-1.355.958.958 0 0 1 1.355 1.355" clip-rule="evenodd"/></svg>
{% endcomment %}

<svg xmlns="http://www.w3.org/2000/svg" width="20" height="20" viewBox="0 0 20 20" fill="none">
<path fill-rule="evenodd" clip-rule="evenodd" d="M10.0009 0C7.28508 0 6.94424 0.011875 5.87756 0.0604167C4.81297 0.109167 4.08629 0.277708 3.45045 0.525C2.79274 0.780417 2.23482 1.12208 1.67898 1.67813C1.12272 2.23396 0.78105 2.79188 0.524797 3.44938C0.276878 4.08542 0.108126 4.81229 0.060209 5.87646C0.0125001 6.94313 0 7.28417 0 10C0 12.7158 0.0120835 13.0556 0.0604173 14.1223C0.109376 15.1869 0.27792 15.9135 0.525006 16.5494C0.780633 17.2071 1.1223 17.765 1.67835 18.3208C2.23398 18.8771 2.7919 19.2196 3.4492 19.475C4.08546 19.7223 4.81234 19.8908 5.87673 19.9396C6.94341 19.9881 7.28403 20 9.99969 20C12.7158 20 13.0556 19.9881 14.1222 19.9396C15.1868 19.8908 15.9143 19.7223 16.5506 19.475C17.2081 19.2196 17.7652 18.8771 18.3208 18.3208C18.8771 17.765 19.2187 17.2071 19.475 16.5496C19.7208 15.9135 19.8896 15.1867 19.9396 14.1225C19.9875 13.0558 20 12.7158 20 10C20 7.28417 19.9875 6.94333 19.9396 5.87667C19.8896 4.81208 19.7208 4.08542 19.475 3.44958C19.2187 2.79188 18.8771 2.23396 18.3208 1.67813C17.7646 1.12188 17.2083 0.780208 16.55 0.525C15.9125 0.277708 15.1854 0.109167 14.1208 0.0604167C13.0541 0.011875 12.7145 0 9.99781 0H10.0009ZM9.10309 1.8023C9.36934 1.80189 9.66643 1.8023 10.0002 1.8023C12.6702 1.8023 12.9867 1.81189 14.0411 1.8598C15.0161 1.90439 15.5452 2.0673 15.8977 2.20418C16.3644 2.38543 16.6971 2.6021 17.0469 2.9521C17.3969 3.3021 17.6136 3.63543 17.7953 4.1021C17.9321 4.45418 18.0953 4.98335 18.1396 5.95835C18.1876 7.01251 18.198 7.32918 18.198 9.99793C18.198 12.6667 18.1876 12.9833 18.1396 14.0375C18.0951 15.0125 17.9321 15.5417 17.7953 15.8938C17.614 16.3604 17.3969 16.6927 17.0469 17.0425C16.6969 17.3925 16.3646 17.6092 15.8977 17.7904C15.5457 17.9279 15.0161 18.0904 14.0411 18.135C12.9869 18.1829 12.6702 18.1933 10.0002 18.1933C7.32995 18.1933 7.01349 18.1829 5.95931 18.135C4.9843 18.09 4.45513 17.9271 4.10241 17.7902C3.63574 17.609 3.30241 17.3923 2.9524 17.0423C2.6024 16.6923 2.38573 16.3598 2.20406 15.8929C2.06719 15.5408 1.90406 15.0117 1.85968 14.0367C1.81177 12.9825 1.80218 12.6658 1.80218 9.99543C1.80218 7.32501 1.81177 7.01001 1.85968 5.95585C1.90427 4.98085 2.06719 4.45168 2.20406 4.09918C2.38531 3.63251 2.6024 3.29918 2.9524 2.94918C3.30241 2.59918 3.63574 2.38251 4.10241 2.20085C4.45492 2.06335 4.9843 1.90085 5.95931 1.85605C6.88182 1.81439 7.23932 1.80189 9.10309 1.7998V1.8023ZM15.3382 3.46233C14.6757 3.46233 14.1382 3.99921 14.1382 4.66191C14.1382 5.32441 14.6757 5.86191 15.3382 5.86191C16.0007 5.86191 16.5382 5.32441 16.5382 4.66191C16.5382 3.99941 16.0007 3.46191 15.3382 3.46191V3.46233ZM9.99973 4.86475C7.16366 4.86475 4.86426 7.16412 4.86426 10.0002C4.86426 12.8362 7.16366 15.1345 9.99973 15.1345C12.8358 15.1345 15.1344 12.8362 15.1344 10.0002C15.1344 7.16412 12.8356 4.86475 9.99952 4.86475H9.99973ZM10.0005 6.66699C11.8414 6.66699 13.3339 8.15928 13.3339 10.0003C13.3339 11.8412 11.8414 13.3337 10.0005 13.3337C8.15947 13.3337 6.66716 11.8412 6.66716 10.0003C6.66716 8.15928 8.15947 6.66699 10.0005 6.66699Z" fill="black"/>
</svg>